<mxfile host="app.diagrams.net" modified="2023-08-07T02:46:51.225Z" agent="Mozilla/5.0 (Macintosh; Intel Mac OS X 10_15_7) AppleWebKit/537.36 (KHTML, like Gecko) Chrome/115.0.0.0 Safari/537.36" etag="icNfsfnAaxDI7SUBRA1u" version="21.6.6" type="google">
  <diagram name="Page-1" id="XBQucyzALng8ViKbG7_Y">
    <mxGraphModel grid="1" page="1" gridSize="10" guides="1" tooltips="1" connect="1" arrows="1" fold="1" pageScale="1" pageWidth="827" pageHeight="1169" math="0" shadow="0">
      <root>
        <mxCell id="0" />
        <mxCell id="1" parent="0" />
        <mxCell id="h-hfe4UCUHJ5wjQo3ha5-1" value="" style="rounded=0;whiteSpace=wrap;html=1;" vertex="1" parent="1">
          <mxGeometry width="1120" height="630" as="geometry" />
        </mxCell>
        <mxCell id="h-hfe4UCUHJ5wjQo3ha5-2" value="" style="rounded=0;whiteSpace=wrap;html=1;" vertex="1" parent="1">
          <mxGeometry y="530" width="1120" height="100" as="geometry" />
        </mxCell>
        <mxCell id="h-hfe4UCUHJ5wjQo3ha5-5" value="" style="shape=ext;double=1;whiteSpace=wrap;html=1;aspect=fixed;" vertex="1" parent="1">
          <mxGeometry x="30" y="30" width="100" height="100" as="geometry" />
        </mxCell>
        <mxCell id="h-hfe4UCUHJ5wjQo3ha5-6" value="" style="rounded=1;whiteSpace=wrap;html=1;" vertex="1" parent="1">
          <mxGeometry x="970" y="550" width="120" height="60" as="geometry" />
        </mxCell>
        <mxCell id="h-hfe4UCUHJ5wjQo3ha5-7" value="" style="rounded=1;whiteSpace=wrap;html=1;" vertex="1" parent="1">
          <mxGeometry x="820" y="550" width="120" height="60" as="geometry" />
        </mxCell>
        <mxCell id="h-hfe4UCUHJ5wjQo3ha5-8" value="New" style="text;html=1;strokeColor=none;fillColor=none;align=center;verticalAlign=middle;whiteSpace=wrap;rounded=0;" vertex="1" parent="1">
          <mxGeometry x="850" y="565" width="60" height="30" as="geometry" />
        </mxCell>
        <mxCell id="h-hfe4UCUHJ5wjQo3ha5-9" value="Load" style="text;html=1;strokeColor=none;fillColor=none;align=center;verticalAlign=middle;whiteSpace=wrap;rounded=0;" vertex="1" parent="1">
          <mxGeometry x="1000" y="565" width="60" height="30" as="geometry" />
        </mxCell>
      </root>
    </mxGraphModel>
  </diagram>
</mxfile>
